<svg width="163" height="135" viewBox="0 0 163 135" fill="none" xmlns="http://www.w3.org/2000/svg">
<rect y="2" width="163" height="122" rx="24" fill="#341D7B"/>
<path d="M39.422 31.465H46.1603C46.7228 31.465 47.1759 31.9181 47.1759 32.4806V58.3046C47.1759 64.8632 52.7736 70.2026 59.6559 70.2026L112.59 70.1948V61.5307C112.59 61.1713 112.781 60.8354 113.09 60.6557C113.398 60.4721 113.781 60.4643 114.098 60.6401L137.477 73.5461C137.797 73.7219 138 74.0617 138 74.4328C138 74.8039 137.801 75.1437 137.477 75.3234L114.098 88.2454C113.945 88.3313 113.777 88.3743 113.609 88.3743C113.43 88.3743 113.25 88.3274 113.09 88.2337C112.781 88.0501 112.59 87.7181 112.59 87.3587V78.6829L59.6559 78.6907C47.9369 78.6907 38.4059 69.5462 38.4059 58.3037V32.4797C38.4059 31.9172 38.8629 31.4641 39.4215 31.4641L39.422 31.465Z" fill="#2F89C9"/>
</svg>
