<svg width="438" height="293" viewBox="0 0 438 293" fill="none" xmlns="http://www.w3.org/2000/svg">
<g clip-path="url(#clip0_11_3)">
<path d="M438 0H0V293H438V0Z" fill="#2F89C9"/>
<path d="M243.239 50.4171V208.431H268.755V50.4171H243.239ZM250.795 75.7487H248.59V57.4585H250.795V75.7487ZM257.1 75.7487H254.894V57.4585H257.1V75.7487ZM263.404 75.7487H261.198V57.4585H263.404V75.7487Z" fill="#6F56C2"/>
<path d="M210.346 74.94H182.542V207.118H210.346V74.94Z" fill="#6F56C2"/>
<path d="M207.859 86.1883H185.174V68.0662C185.174 61.7802 190.252 56.685 196.516 56.685C202.781 56.685 207.858 61.7808 207.858 68.0662V86.1883H207.859Z" fill="#6F56C2"/>
<path d="M326.333 123.299L327.239 122.671C327.239 122.671 327.143 119.944 327.046 119.557C326.979 119.316 326.198 118.919 325.62 118.659C325.524 116.531 325.283 112.539 325.004 112.829C324.724 113.11 324.647 116.657 324.618 118.63C324.04 118.901 323.221 119.307 323.153 119.558C323.057 119.945 322.961 122.671 322.961 122.671L323.867 123.3C323.867 123.3 321.188 175.603 299.471 208.792C315.513 208.792 315.513 208.792 315.513 208.792C315.513 208.792 315.513 190.684 323.867 190.684C324.31 190.684 325.89 190.684 326.333 190.684C334.686 190.684 334.686 208.792 334.686 208.792C334.686 208.792 334.686 208.792 350.719 208.792C329.002 175.602 326.333 123.299 326.333 123.299ZM328.087 176.443H322.113V172.15C322.113 170.497 323.443 169.154 325.1 169.154C325.929 169.154 326.67 169.492 327.21 170.033C327.75 170.575 328.087 171.329 328.087 172.15V176.443Z" fill="#6F56C2"/>
<path d="M334.498 160.802H315.701V164.224H334.498V160.802Z" fill="#6F56C2"/>
<path d="M339.933 177.512H310.265V182.227H339.933V177.512Z" fill="#6F56C2"/>
<path d="M65.2317 196.048C40.7703 196.048 20.8693 176.079 20.8693 151.533C20.8693 126.987 40.7703 107.018 65.2317 107.018C89.6937 107.018 109.595 126.987 109.595 151.533C109.595 176.079 89.6937 196.048 65.2317 196.048ZM65.2317 109.187C41.9622 109.187 23.0307 128.183 23.0307 151.533C23.0307 174.883 41.9616 193.879 65.2317 193.879C88.5018 193.879 107.433 174.883 107.433 151.533C107.433 128.183 88.5012 109.187 65.2317 109.187Z" fill="#4226AB"/>
<path d="M62.2656 200.132C60.7734 200.045 59.6387 198.765 59.7363 197.268C59.8227 195.771 61.0981 194.633 62.5897 194.72C64.0812 194.817 65.2165 196.097 65.1295 197.593C65.0431 199.025 63.854 200.142 62.4273 200.142C62.3736 200.142 62.3193 200.142 62.2656 200.132ZM70.3826 197.301C70.1338 195.825 71.1178 194.427 72.5878 194.178C74.0577 193.917 75.4628 194.915 75.7116 196.39C75.9604 197.865 74.9763 199.263 73.5064 199.514C73.3551 199.546 73.1928 199.557 73.0415 199.557C71.755 199.556 70.6092 198.624 70.3826 197.301ZM51.176 198.147C49.7493 197.713 48.9492 196.206 49.3714 194.774C49.8036 193.342 51.3167 192.529 52.7434 192.963C54.1701 193.386 54.9807 194.905 54.548 196.336C54.2023 197.508 53.1213 198.266 51.965 198.266C51.7062 198.265 51.4464 198.234 51.176 198.147ZM80.769 194.894C80.1745 193.516 80.8122 191.911 82.1852 191.325C83.5576 190.74 85.1467 191.379 85.7307 192.756C86.3252 194.134 85.6875 195.728 84.3151 196.314C83.9693 196.465 83.6014 196.531 83.2557 196.531C82.1957 196.531 81.2018 195.912 80.769 194.894ZM40.8544 193.635V193.645C39.5573 192.886 39.1251 191.228 39.8709 189.937C40.6278 188.635 42.2811 188.202 43.567 188.96C44.8641 189.709 45.2963 191.369 44.5505 192.659C44.0424 193.526 43.1349 194.003 42.2051 194.003C41.752 194.004 41.276 193.884 40.8544 193.635ZM90.3022 190.121C89.4157 188.917 89.6645 187.215 90.864 186.325C92.0636 185.436 93.7601 185.696 94.6466 186.889C95.5325 188.093 95.2843 189.795 94.0848 190.686C93.5983 191.042 93.0359 191.216 92.4741 191.216C91.653 191.216 90.8313 190.837 90.3022 190.121ZM31.8409 186.868C30.7599 185.838 30.7167 184.124 31.7434 183.028C32.77 181.944 34.4782 181.9 35.5697 182.931C35.5697 182.931 35.5697 182.931 35.5592 182.931C36.6402 183.962 36.6939 185.675 35.6667 186.76C35.1376 187.323 34.4239 187.605 33.6998 187.605C33.0404 187.605 32.37 187.366 31.8409 186.868ZM98.4835 183.279C97.3488 182.313 97.2086 180.599 98.1699 179.46C99.1317 178.311 100.84 178.17 101.975 179.135C103.12 180.111 103.261 181.814 102.299 182.963C101.759 183.593 101.002 183.917 100.235 183.917C99.6188 183.918 98.9916 183.712 98.4835 183.279ZM24.6209 178.202C23.8103 176.944 24.156 175.263 25.3988 174.439C26.6526 173.625 28.3281 173.973 29.1387 175.219C29.9598 176.477 29.6141 178.158 28.3708 178.983C27.9065 179.276 27.3984 179.416 26.8903 179.416C26.0038 179.417 25.1395 178.994 24.6209 178.202ZM104.893 174.743C103.564 174.06 103.023 172.433 103.704 171.099C104.385 169.765 106.006 169.223 107.335 169.906C108.664 170.589 109.195 172.216 108.524 173.549C108.049 174.493 107.097 175.035 106.114 175.035C105.703 175.035 105.282 174.938 104.893 174.743ZM19.5839 168.084C19.0764 166.674 19.8 165.124 21.2051 164.614C22.6102 164.103 24.1555 164.83 24.6641 166.241C25.1716 167.65 24.448 169.201 23.0429 169.71C22.7398 169.819 22.4262 169.873 22.1243 169.873C21.0217 169.873 19.984 169.19 19.5839 168.084ZM109.162 164.95C107.703 164.592 106.817 163.138 107.163 161.675C107.509 160.221 108.968 159.321 110.416 159.679C111.864 160.026 112.761 161.49 112.415 162.944C112.112 164.19 111.01 165.026 109.789 165.026C109.584 165.026 109.367 165.004 109.162 164.95ZM17.0225 157.076C16.8502 155.59 17.9195 154.245 19.4005 154.083C20.8816 153.909 22.2213 154.982 22.3836 156.468C22.5565 157.954 21.4866 159.299 20.0056 159.462C19.9086 159.472 19.8 159.483 19.7025 159.483C18.3412 159.483 17.1737 158.464 17.0225 157.076ZM111.043 154.429C109.551 154.419 108.341 153.204 108.351 151.707C108.351 151.674 108.351 151.653 108.351 151.62C108.351 151.588 108.351 151.567 108.351 151.534C108.351 150.037 109.562 148.822 111.053 148.822C112.546 148.822 113.756 150.037 113.756 151.534C113.756 151.567 113.756 151.599 113.756 151.631C113.756 151.664 113.756 151.697 113.756 151.728C113.745 153.226 112.546 154.429 111.053 154.429H111.043ZM19.4116 148.789C17.9306 148.617 16.8718 147.272 17.0441 145.786C17.217 144.3 18.5578 143.238 20.0377 143.41C21.5187 143.583 22.5775 144.929 22.4046 146.414C22.4046 146.414 22.4046 146.414 22.4046 146.425C22.2423 147.803 21.0754 148.811 19.7241 148.811C19.6271 148.812 19.5191 148.812 19.4116 148.789ZM107.206 141.556C106.86 140.103 107.757 138.639 109.216 138.292C110.665 137.956 112.112 138.856 112.459 140.309C112.804 141.773 111.897 143.226 110.448 143.574C110.243 143.627 110.037 143.65 109.832 143.65C108.6 143.65 107.498 142.804 107.206 141.556ZM21.2594 138.271C19.8543 137.75 19.1412 136.199 19.6487 134.789C20.1673 133.39 21.7132 132.664 23.1183 133.173C24.524 133.693 25.2364 135.245 24.729 136.655C24.3289 137.75 23.2911 138.433 22.1891 138.433C21.8755 138.433 21.573 138.379 21.2594 138.271ZM103.779 132.122C103.109 130.788 103.65 129.15 104.979 128.488C106.319 127.805 107.94 128.347 108.611 129.682C109.281 131.026 108.74 132.653 107.411 133.325C107.022 133.521 106.601 133.619 106.2 133.619C105.206 133.618 104.256 133.064 103.779 132.122ZM25.4963 128.455C24.2536 127.631 23.9073 125.95 24.729 124.703C25.5501 123.456 27.2256 123.109 28.4794 123.933C29.7222 124.768 30.0574 126.449 29.2363 127.696C28.7177 128.488 27.8639 128.911 26.9879 128.911C26.4687 128.912 25.9501 128.759 25.4963 128.455ZM98.2785 123.738C97.3167 122.589 97.4679 120.875 98.6026 119.909C99.7484 118.955 101.456 119.096 102.418 120.246C103.369 121.395 103.229 123.098 102.083 124.063C101.575 124.497 100.959 124.703 100.344 124.703C99.5756 124.703 98.8082 124.367 98.2785 123.738ZM31.873 119.899C30.8464 118.803 30.9001 117.09 31.9811 116.07V116.06C33.0726 115.041 34.7802 115.095 35.8074 116.179C36.8236 117.274 36.7798 118.988 35.6883 120.019C35.1697 120.507 34.4999 120.756 33.8399 120.756C33.1158 120.755 32.4021 120.463 31.873 119.899ZM91.0042 116.84C89.8047 115.94 89.5559 114.237 90.4535 113.043C91.3394 111.84 93.0365 111.59 94.2361 112.491C95.4245 113.391 95.6733 115.083 94.7762 116.287C94.2466 117.003 93.436 117.372 92.6149 117.372C92.0531 117.372 91.4801 117.198 91.0042 116.84ZM40.0327 113.034C39.2869 111.732 39.7302 110.073 41.0167 109.325C42.3138 108.577 43.9671 109.021 44.7128 110.323C45.4586 111.614 45.0159 113.272 43.7189 114.021C43.2972 114.271 42.833 114.39 42.3786 114.39C41.4384 114.389 40.5302 113.901 40.0327 113.034ZM82.3476 111.808C80.9752 111.212 80.3479 109.618 80.9425 108.24C81.5259 106.864 83.1255 106.234 84.4879 106.831H84.4984C85.8603 107.427 86.487 109.021 85.893 110.388C85.4609 111.418 84.4663 112.026 83.418 112.026C83.0606 112.025 82.6933 111.959 82.3476 111.808ZM49.5548 108.23C49.1226 106.798 49.9443 105.28 51.371 104.856C52.7977 104.434 54.3103 105.247 54.732 106.679C55.1536 108.121 54.343 109.628 52.9163 110.051C52.6564 110.128 52.3971 110.171 52.1378 110.171C50.9821 110.171 49.9011 109.401 49.5548 108.23ZM72.7606 108.923C71.2907 108.663 70.3177 107.253 70.577 105.779C70.8258 104.303 72.2303 103.316 73.7009 103.577C75.1708 103.838 76.1542 105.247 75.8949 106.722C75.6678 108.035 74.5225 108.967 73.236 108.967C73.0842 108.967 72.9224 108.945 72.7606 108.923ZM59.9202 105.779C59.8338 104.281 60.9796 103.002 62.4705 102.915C63.9516 102.828 65.2264 103.979 65.3129 105.475C65.3993 106.971 64.2646 108.251 62.773 108.327C62.7193 108.337 62.665 108.337 62.6113 108.337C61.1957 108.337 60.0066 107.221 59.9202 105.779Z" fill="#4226AB"/>
<path d="M66.1827 157.391C69.4069 156.866 71.5964 153.818 71.0732 150.583C70.5499 147.347 67.512 145.15 64.2878 145.675C61.0637 146.2 58.8741 149.249 59.3974 152.484C59.9207 155.719 62.9586 157.916 66.1827 157.391Z" fill="#4226AB"/>
<path d="M38.0465 208.75L36.1117 207.784L65.2492 149.065L93.3711 207.797L91.4229 208.736L65.2142 154L38.0465 208.75Z" fill="#4226AB"/>
<path d="M65.8905 107.714H64.5724V195.35H65.8905V107.714Z" fill="#4226AB"/>
<path d="M50.914 110.134L49.6754 110.586L79.5445 192.937L80.7831 192.485L50.914 110.134Z" fill="#4226AB"/>
<path d="M37.6651 117.536L36.6559 118.386L92.7962 185.516L93.8054 184.666L37.6651 117.536Z" fill="#4226AB"/>
<path d="M27.7406 129.052L27.0818 130.197L102.715 174.015L103.374 172.87L27.7406 129.052Z" fill="#4226AB"/>
<path d="M22.3374 143.269L22.1086 144.571L108.118 159.784L108.346 158.483L22.3374 143.269Z" fill="#4226AB"/>
<path d="M108.13 143.263L22.1213 158.503L22.3504 159.805L108.359 144.565L108.13 143.263Z" fill="#4226AB"/>
<path d="M102.703 129.037L27.0867 172.881L27.7458 174.025L103.362 130.181L102.703 129.037Z" fill="#4226AB"/>
<path d="M92.8066 117.548L36.6575 184.677L37.6667 185.527L93.8158 118.398L92.8066 117.548Z" fill="#4226AB"/>
<path d="M79.5375 110.138L49.6771 192.489L50.9157 192.941L80.7761 110.59L79.5375 110.138Z" fill="#4226AB"/>
<path d="M66.9347 148.296H63.701L64.1554 207.712H67.389L66.9347 148.296Z" fill="#4226AB"/>
<path d="M118.537 98.724V208.841H168.1V108.241H160.146L133.223 98.724H118.537Z" fill="#4226AB"/>
<path d="M254.015 129.593H219.805V208.15H254.015V129.593Z" fill="#4226AB"/>
<path d="M243.393 207.545L289.39 144.907L335.089 207.545H243.393Z" fill="#4226AB"/>
<path d="M250.779 124.722H223.041V135.16H250.779V124.722Z" fill="#4226AB"/>
<path d="M226.97 124.722L236.91 116.373L247.08 124.722L241.995 129.941L226.97 124.722Z" fill="#4226AB"/>
<path d="M205.382 136.324H174.628V207.741H205.382V136.324Z" fill="#4226AB"/>
<path d="M201.575 154.252H179.607V130.447L201.575 119.278V154.252Z" fill="#4226AB"/>
<path d="M200.11 141.32H179.607V143.966H200.11V141.32Z" fill="#6F56C2"/>
<path d="M200.11 148.08H179.607V150.726H200.11V148.08Z" fill="#6F56C2"/>
<path d="M200.11 154.84H179.607V157.485H200.11V154.84Z" fill="#6F56C2"/>
<path d="M200.11 161.599H179.607V164.245H200.11V161.599Z" fill="#6F56C2"/>
<path d="M200.11 168.359H179.607V171.004H200.11V168.359Z" fill="#6F56C2"/>
<path d="M200.11 175.118H179.607V177.764H200.11V175.118Z" fill="#6F56C2"/>
<path d="M200.11 181.879H179.607V184.524H200.11V181.879Z" fill="#6F56C2"/>
<path d="M200.11 188.638H179.607V191.283H200.11V188.638Z" fill="#6F56C2"/>
<path d="M200.11 195.398H179.607V198.043H200.11V195.398Z" fill="#6F56C2"/>
<path d="M174.628 178.908H158.067V209.275H174.628V178.908Z" fill="#4226AB"/>
<path d="M124.081 56.3011H64.6541C64.6541 56.3011 66.631 52.9879 79.0427 52.8994C79.8019 40.3391 96.1288 38.2131 97.6758 49.7989C103.495 44.6262 106.214 52.8379 106.214 52.8379C106.214 52.8379 115.924 48.0995 124.081 56.3011Z" fill="#B7ABE0"/>
<path d="M320.964 97.4647H388.689C388.689 97.4647 388.097 88.377 378.593 88.8716C382.684 68.7103 346.183 64.2127 349.674 90.4303C339.182 87.8074 341.865 93.9381 341.865 93.9381C341.865 93.9381 326.827 90.3635 320.964 97.4647Z" fill="#B7ABE0"/>
<path d="M424.08 207.176H13.9208V209.274H424.08V207.176Z" fill="#341D7B"/>
<path d="M144.014 89.8783C144.014 89.8783 148.025 101.298 148.025 127.866C148.025 154.434 133.33 207.339 133.33 207.339H162.131C162.131 207.339 156.324 155.833 156.092 131.129C155.86 106.425 157.254 91.9756 157.254 91.9756L159.112 91.7424V88.2463C159.112 88.2463 164.031 81.7997 163.886 78.5885C163.74 75.3772 141.265 74.8662 141.265 79.0262C141.265 83.1862 145.192 87.7113 145.192 87.7113L144.014 89.8783Z" fill="#341D7B"/>
<path d="M145.992 78.4431C145.992 78.4431 148.465 71.4369 151.884 71.4369C155.303 71.4369 158.066 77.7136 158.066 77.7136" fill="#341D7B"/>
<path d="M152.685 50.4171H151.375V86.3254H152.685V50.4171Z" fill="#341D7B"/>
<path d="M284.952 207.519H233.758V170.5C233.758 170.5 240.805 180.237 259.355 180.237C277.905 180.237 284.952 170.5 284.952 170.5V207.519H284.952Z" fill="#341D7B"/>
<path d="M129.162 173.169H76.5286V207.712H129.162V173.169Z" fill="#341D7B"/>
<path d="M129.162 168.248H107.912V184.628H129.162V168.248Z" fill="#341D7B"/>
<path d="M98.4321 162.695H76.5286V173.921H98.4321V162.695Z" fill="#341D7B"/>
<path d="M101.718 152.175H83.067V178.496H101.718V152.175Z" fill="#341D7B"/>
<path d="M95.1774 185.266H57.8073V208.1H95.1774V185.266Z" fill="#341D7B"/>
<path d="M86.1167 188.976H60.8663L69.6263 169.679H86.1167V188.976Z" fill="#341D7B"/>
<path d="M63.2741 202.536H31.0005V208.75H63.2741V202.536Z" fill="#341D7B"/>
<path d="M49.6768 200.748H34.9944V203.848H49.6768V200.748Z" fill="#341D7B"/>
<path d="M124.669 158.314H122.728V172.033H124.669V158.314Z" fill="#341D7B"/>
<path d="M174.628 199.556H154.966V207.741H174.628V199.556Z" fill="#341D7B"/>
<path d="M231.128 196.057H208.482V207.118H231.128V196.057Z" fill="#341D7B"/>
<path d="M226.92 201.588H212.69L215.762 105.159H223.848L226.92 201.588Z" fill="#341D7B"/>
<path d="M215.762 105.159L219.805 98.724L223.848 105.159L221.108 110.79L215.762 105.159Z" fill="#341D7B"/>
<path d="M352.914 194.644H337.777V209.223H352.914V194.644Z" fill="#341D7B"/>
<path d="M341.864 209.223H315.91V204.502L321.049 203.394L321.306 201.818H328.404L332.516 197.93H340.323L343.663 204.502" fill="#341D7B"/>
<path d="M344.396 205.238V137.312H361.175V209.153H358.31V140.915H347.26V206.164" fill="#341D7B"/>
<path d="M399.067 201.933H361.175V208.225H399.067V201.933Z" fill="#341D7B"/>
<path d="M353.683 145.49C353.683 139.336 353.281 134.347 352.785 134.347C352.289 134.347 351.887 139.336 351.887 145.49C351.887 151.644 352.289 156.634 352.785 156.634C353.282 156.633 353.683 151.644 353.683 145.49Z" fill="#341D7B"/>
<path d="M352.786 146.391C358.919 146.391 363.891 145.987 363.891 145.49C363.891 144.992 358.919 144.588 352.786 144.588C346.653 144.588 341.68 144.992 341.68 145.49C341.68 145.988 346.653 146.391 352.786 146.391Z" fill="#341D7B"/>
<path d="M353.263 145.974C356.55 142.676 358.999 139.787 358.733 139.52C358.467 139.254 355.588 141.711 352.301 145.009C349.015 148.306 346.566 151.196 346.832 151.462C347.097 151.729 349.977 149.272 353.263 145.974Z" fill="#341D7B"/>
<path d="M352.304 145.973C355.591 149.271 358.47 151.728 358.736 151.462C359.002 151.195 356.553 148.305 353.267 145.007C349.98 141.709 347.1 139.252 346.835 139.519C346.569 139.786 349.018 142.675 352.304 145.973Z" fill="#341D7B"/>
<path d="M363.339 150.105L355.301 153.092C355.301 153.092 349.28 148.957 346.098 154.626C343.284 153.666 340.836 152.806 339.368 154.893C337.9 156.981 342.229 157.167 342.229 157.167C342.229 157.167 329.787 162.089 329.787 166.004C329.787 170.112 363.037 183.886 363.037 183.886C363.037 183.886 397.37 170.217 397.37 166.681C397.37 161.278 363.339 150.105 363.339 150.105Z" fill="#341D7B"/>
<path d="M346.234 160.437C348.169 158.495 348.169 155.347 346.234 153.405C344.298 151.463 341.161 151.463 339.225 153.405C337.29 155.347 337.29 158.495 339.225 160.437C341.161 162.379 344.298 162.379 346.234 160.437Z" fill="#341D7B"/>
<path d="M380.725 157.802C381.354 155.129 379.705 152.451 377.041 151.82C374.377 151.189 371.708 152.844 371.079 155.517C370.45 158.19 372.1 160.868 374.763 161.499C377.427 162.13 380.096 160.475 380.725 157.802Z" fill="#341D7B"/>
<path d="M389.244 160.151C391.179 158.209 391.179 155.06 389.244 153.118C387.309 151.176 384.171 151.176 382.236 153.118C380.3 155.06 380.3 158.209 382.236 160.151C384.171 162.093 387.309 162.093 389.244 160.151Z" fill="#341D7B"/>
<path d="M412.199 196.343H383.237V208.225H412.199V196.343Z" fill="#341D7B"/>
<path d="M408.602 193.456H386.835V197.93H408.602V193.456Z" fill="#341D7B"/>
<path d="M412.199 190.144H383.237V193.484H412.199V190.144Z" fill="#341D7B"/>
<path d="M402.114 185.152H393.409C391.913 185.152 390.7 186.369 390.7 187.871V191.814H404.824V187.871C404.824 186.369 403.611 185.152 402.114 185.152Z" fill="#341D7B"/>
<path d="M131.05 241V223.5H132.325V239.85H142.4V241H131.05ZM149.17 241L157.22 223.5H158.495L166.545 241H165.17L157.57 224.3H158.12L150.545 241H149.17ZM152.12 236.075L152.545 235H163.02L163.445 236.075H152.12ZM180.743 241.125C179.443 241.125 178.209 240.908 177.043 240.475C175.893 240.025 175.001 239.45 174.368 238.75L174.943 237.8C175.543 238.417 176.359 238.942 177.393 239.375C178.443 239.792 179.551 240 180.718 240C181.884 240 182.834 239.85 183.568 239.55C184.318 239.233 184.868 238.817 185.218 238.3C185.584 237.783 185.768 237.208 185.768 236.575C185.768 235.825 185.568 235.225 185.168 234.775C184.768 234.325 184.243 233.967 183.593 233.7C182.943 233.433 182.234 233.208 181.468 233.025C180.701 232.842 179.926 232.65 179.143 232.45C178.359 232.233 177.643 231.958 176.993 231.625C176.343 231.292 175.818 230.842 175.418 230.275C175.034 229.692 174.843 228.942 174.843 228.025C174.843 227.192 175.059 226.425 175.493 225.725C175.926 225.025 176.601 224.458 177.518 224.025C178.434 223.592 179.609 223.375 181.043 223.375C182.009 223.375 182.959 223.517 183.893 223.8C184.843 224.083 185.651 224.467 186.318 224.95L185.843 225.975C185.109 225.475 184.318 225.108 183.468 224.875C182.634 224.625 181.826 224.5 181.043 224.5C179.926 224.5 179.001 224.658 178.268 224.975C177.534 225.292 176.993 225.717 176.643 226.25C176.293 226.767 176.118 227.35 176.118 228C176.118 228.75 176.309 229.35 176.693 229.8C177.093 230.25 177.618 230.608 178.268 230.875C178.918 231.142 179.634 231.367 180.418 231.55C181.201 231.733 181.976 231.933 182.743 232.15C183.509 232.35 184.218 232.617 184.868 232.95C185.518 233.283 186.043 233.733 186.443 234.3C186.843 234.867 187.043 235.6 187.043 236.5C187.043 237.317 186.818 238.083 186.368 238.8C185.918 239.5 185.226 240.067 184.293 240.5C183.376 240.917 182.193 241.125 180.743 241.125ZM215.54 241L207.74 223.5H209.14L216.59 240.225H215.815L223.29 223.5H224.615L216.815 241H215.54ZM235.349 231.55H244.824V232.675H235.349V231.55ZM235.499 239.85H246.299V241H234.224V223.5H245.924V224.65H235.499V239.85ZM264.843 241.125C263.527 241.125 262.31 240.908 261.193 240.475C260.077 240.025 259.102 239.4 258.268 238.6C257.452 237.8 256.818 236.867 256.368 235.8C255.918 234.717 255.693 233.533 255.693 232.25C255.693 230.967 255.918 229.792 256.368 228.725C256.818 227.642 257.46 226.7 258.293 225.9C259.127 225.1 260.093 224.483 261.193 224.05C262.31 223.6 263.535 223.375 264.868 223.375C266.135 223.375 267.31 223.575 268.393 223.975C269.477 224.375 270.402 224.975 271.168 225.775L270.368 226.625C269.602 225.875 268.76 225.342 267.843 225.025C266.943 224.708 265.96 224.55 264.893 224.55C263.76 224.55 262.71 224.742 261.743 225.125C260.777 225.508 259.935 226.05 259.218 226.75C258.502 227.45 257.943 228.267 257.543 229.2C257.16 230.133 256.968 231.15 256.968 232.25C256.968 233.35 257.16 234.367 257.543 235.3C257.943 236.233 258.502 237.05 259.218 237.75C259.935 238.45 260.777 238.992 261.743 239.375C262.71 239.758 263.76 239.95 264.893 239.95C265.927 239.95 266.902 239.792 267.818 239.475C268.752 239.158 269.602 238.633 270.368 237.9L271.093 238.875C270.31 239.625 269.368 240.192 268.268 240.575C267.185 240.942 266.043 241.125 264.843 241.125ZM269.868 238.75V232.325H271.093V238.875L269.868 238.75ZM280.2 241L288.25 223.5H289.525L297.575 241H296.2L288.6 224.3H289.15L281.575 241H280.2ZM283.15 236.075L283.575 235H294.05L294.475 236.075H283.15ZM311.773 241.125C310.473 241.125 309.24 240.908 308.073 240.475C306.923 240.025 306.031 239.45 305.398 238.75L305.973 237.8C306.573 238.417 307.39 238.942 308.423 239.375C309.473 239.792 310.581 240 311.748 240C312.915 240 313.865 239.85 314.598 239.55C315.348 239.233 315.898 238.817 316.248 238.3C316.615 237.783 316.798 237.208 316.798 236.575C316.798 235.825 316.598 235.225 316.198 234.775C315.798 234.325 315.273 233.967 314.623 233.7C313.973 233.433 313.265 233.208 312.498 233.025C311.731 232.842 310.956 232.65 310.173 232.45C309.39 232.233 308.673 231.958 308.023 231.625C307.373 231.292 306.848 230.842 306.448 230.275C306.065 229.692 305.873 228.942 305.873 228.025C305.873 227.192 306.09 226.425 306.523 225.725C306.956 225.025 307.631 224.458 308.548 224.025C309.465 223.592 310.64 223.375 312.073 223.375C313.04 223.375 313.99 223.517 314.923 223.8C315.873 224.083 316.681 224.467 317.348 224.95L316.873 225.975C316.14 225.475 315.348 225.108 314.498 224.875C313.665 224.625 312.856 224.5 312.073 224.5C310.956 224.5 310.031 224.658 309.298 224.975C308.565 225.292 308.023 225.717 307.673 226.25C307.323 226.767 307.148 227.35 307.148 228C307.148 228.75 307.34 229.35 307.723 229.8C308.123 230.25 308.648 230.608 309.298 230.875C309.948 231.142 310.665 231.367 311.448 231.55C312.231 231.733 313.006 231.933 313.773 232.15C314.54 232.35 315.248 232.617 315.898 232.95C316.548 233.283 317.073 233.733 317.473 234.3C317.873 234.867 318.073 235.6 318.073 236.5C318.073 237.317 317.848 238.083 317.398 238.8C316.948 239.5 316.256 240.067 315.323 240.5C314.406 240.917 313.223 241.125 311.773 241.125Z" fill="#341D7B"/>
<path d="M181.025 281V280.1L188.425 272.75C189.125 272.05 189.65 271.442 190 270.925C190.35 270.392 190.583 269.9 190.7 269.45C190.833 269 190.9 268.558 190.9 268.125C190.9 267.025 190.525 266.158 189.775 265.525C189.025 264.875 187.925 264.55 186.475 264.55C185.375 264.55 184.408 264.717 183.575 265.05C182.758 265.383 182.05 265.892 181.45 266.575L180.55 265.775C181.217 265.008 182.058 264.417 183.075 264C184.108 263.583 185.275 263.375 186.575 263.375C187.725 263.375 188.717 263.567 189.55 263.95C190.4 264.317 191.05 264.85 191.5 265.55C191.967 266.233 192.2 267.05 192.2 268C192.2 268.567 192.117 269.125 191.95 269.675C191.8 270.208 191.517 270.775 191.1 271.375C190.7 271.975 190.117 272.658 189.35 273.425L182.4 280.35L181.975 279.85H193.05V281H181.025ZM208.733 281.125C207.399 281.125 206.216 280.767 205.183 280.05C204.149 279.333 203.341 278.317 202.758 277C202.174 275.667 201.883 274.083 201.883 272.25C201.883 270.417 202.174 268.842 202.758 267.525C203.341 266.192 204.149 265.167 205.183 264.45C206.216 263.733 207.399 263.375 208.733 263.375C210.083 263.375 211.266 263.733 212.283 264.45C213.316 265.167 214.124 266.192 214.708 267.525C215.291 268.842 215.583 270.417 215.583 272.25C215.583 274.083 215.291 275.667 214.708 277C214.124 278.317 213.316 279.333 212.283 280.05C211.266 280.767 210.083 281.125 208.733 281.125ZM208.733 279.95C209.849 279.95 210.824 279.65 211.658 279.05C212.491 278.433 213.141 277.55 213.608 276.4C214.074 275.25 214.308 273.867 214.308 272.25C214.308 270.617 214.074 269.233 213.608 268.1C213.141 266.95 212.491 266.075 211.658 265.475C210.824 264.858 209.849 264.55 208.733 264.55C207.633 264.55 206.658 264.858 205.808 265.475C204.974 266.075 204.324 266.95 203.858 268.1C203.391 269.233 203.158 270.617 203.158 272.25C203.158 273.867 203.391 275.25 203.858 276.4C204.324 277.55 204.974 278.433 205.808 279.05C206.658 279.65 207.633 279.95 208.733 279.95ZM224.409 281V280.1L231.809 272.75C232.509 272.05 233.034 271.442 233.384 270.925C233.734 270.392 233.967 269.9 234.084 269.45C234.217 269 234.284 268.558 234.284 268.125C234.284 267.025 233.909 266.158 233.159 265.525C232.409 264.875 231.309 264.55 229.859 264.55C228.759 264.55 227.792 264.717 226.959 265.05C226.142 265.383 225.434 265.892 224.834 266.575L223.934 265.775C224.6 265.008 225.442 264.417 226.459 264C227.492 263.583 228.659 263.375 229.959 263.375C231.109 263.375 232.1 263.567 232.934 263.95C233.784 264.317 234.434 264.85 234.884 265.55C235.35 266.233 235.584 267.05 235.584 268C235.584 268.567 235.5 269.125 235.334 269.675C235.184 270.208 234.9 270.775 234.484 271.375C234.084 271.975 233.5 272.658 232.734 273.425L225.784 280.35L225.359 279.85H236.434V281H224.409ZM252.292 281.125C250.758 281.125 249.467 280.775 248.417 280.075C247.383 279.375 246.6 278.367 246.067 277.05C245.533 275.733 245.267 274.167 245.267 272.35C245.267 270.367 245.592 268.717 246.242 267.4C246.892 266.067 247.8 265.067 248.967 264.4C250.133 263.717 251.492 263.375 253.042 263.375C253.792 263.375 254.508 263.442 255.192 263.575C255.875 263.708 256.483 263.942 257.017 264.275L256.492 265.3C256.042 265.017 255.517 264.817 254.917 264.7C254.333 264.567 253.708 264.5 253.042 264.5C251.075 264.5 249.5 265.142 248.317 266.425C247.133 267.692 246.542 269.6 246.542 272.15C246.542 272.533 246.567 273.025 246.617 273.625C246.667 274.208 246.775 274.783 246.942 275.35L246.492 275.225C246.608 274.258 246.933 273.433 247.467 272.75C248 272.067 248.683 271.55 249.517 271.2C250.35 270.833 251.267 270.65 252.267 270.65C253.433 270.65 254.45 270.867 255.317 271.3C256.2 271.717 256.883 272.317 257.367 273.1C257.867 273.883 258.117 274.8 258.117 275.85C258.117 276.917 257.858 277.85 257.342 278.65C256.842 279.433 256.15 280.042 255.267 280.475C254.4 280.908 253.408 281.125 252.292 281.125ZM252.242 280.025C253.158 280.025 253.958 279.858 254.642 279.525C255.325 279.175 255.858 278.692 256.242 278.075C256.642 277.442 256.842 276.708 256.842 275.875C256.842 274.625 256.417 273.625 255.567 272.875C254.733 272.125 253.575 271.75 252.092 271.75C251.142 271.75 250.3 271.933 249.567 272.3C248.833 272.667 248.258 273.167 247.842 273.8C247.442 274.433 247.242 275.142 247.242 275.925C247.242 276.608 247.433 277.267 247.817 277.9C248.2 278.517 248.758 279.025 249.492 279.425C250.242 279.825 251.158 280.025 252.242 280.025Z" fill="#341D7B"/>
</g>
<defs>
<clipPath id="clip0_11_3">
<rect width="438" height="293" fill="white"/>
</clipPath>
</defs>
</svg>
